<?xml version="1.0" encoding="UTF-8" standalone="no"?>
<svg
   xmlns:dc="http://purl.org/dc/elements/1.1/"
   xmlns:cc="http://creativecommons.org/ns#"
   xmlns:rdf="http://www.w3.org/1999/02/22-rdf-syntax-ns#"
   xmlns:svg="http://www.w3.org/2000/svg"
   xmlns="http://www.w3.org/2000/svg"
   version="1.1"
   id="svg2"
   viewBox="0 0 712.43462 592.94002"
   height="167.34085mm"
   width="201.06488mm">
  <defs
     id="defs4" />
  <metadata
     id="metadata7">
    <rdf:RDF>
      <cc:Work
         rdf:about="">
        <dc:format>image/svg+xml</dc:format>
        <dc:type
           rdf:resource="http://purl.org/dc/dcmitype/StillImage" />
        <dc:title></dc:title>
      </cc:Work>
    </rdf:RDF>
  </metadata>
  <g
     transform="translate(-24.861691,-187.39721)"
     id="layer1">
    <path
       id="path4170"
       d="m 43.18055,779.18261 c -11.7801,-1.97887 -18.24652,-8.48507 -18.31417,-18.42687 -0.0579,-8.50731 0.12686,-8.80682 18.70505,-30.32547 11.61316,-13.45123 75.3514,-76.10141 105.56164,-103.75963 4.09015,-3.74463 10.51022,-9.62092 14.26682,-13.05842 3.75662,-3.4375 11.09763,-10.23073 16.31337,-15.09605 5.21574,-4.86534 11.94911,-11.05284 14.96303,-13.75 13.09284,-11.71684 48.24249,-48.20005 54.70353,-56.77895 l 7.0606,-9.375 -4.247,-0.43565 c -8.86502,-0.90938 -48.30555,8.17826 -56.74699,13.07529 -1.375,0.79765 -6.19551,2.65156 -10.71225,4.11977 -10.19651,3.3145 -30.4496,13.44514 -34.69024,17.35213 -0.96204,0.88633 -4.35879,2.95127 -7.54834,4.58875 -3.18955,1.63746 -7.76792,4.4483 -10.17417,6.2463 -7.57834,5.66267 -18.74848,17.1696 -17.93881,18.47966 0.45323,0.73336 3.32622,0.95501 6.89697,0.5321 10.38263,-1.22966 12.56578,1.23676 5.82026,6.57545 -6.92338,5.47945 -20.60478,5.98413 -23.91018,0.88198 -2.94643,-4.54805 -3.5847,-12.40517 -1.28837,-15.85967 3.31259,-4.98328 15.66248,-17.34215 21.04513,-21.0604 2.75,-1.89965 9.77527,-6.74464 15.61174,-10.76662 22.35317,-15.40394 50.5118,-27.79653 81.13451,-35.70724 10.14709,-2.62128 30.7171,-6.14685 35.86389,-6.14685 4.59922,0 12.00487,3.7728 12.71177,6.476 1.05385,4.02994 2.46544,2.42966 3.23154,-3.6635 0.41059,-3.26563 1.58709,-12.40625 2.61446,-20.3125 1.02736,-7.90625 2.46471,-20.5625 3.19412,-28.125 0.7294,-7.5625 2.15233,-21.0625 3.16207,-30 1.8284,-16.1837 4.93939,-44.35761 6.21117,-56.25 0.36762,-3.4375 1.21102,-8.5 1.87423,-11.25 0.66322,-2.75 1.22902,-8.9375 1.25734,-13.75 0.0283,-4.8125 0.6357,-14.09375 1.34973,-20.625 3.44448,-31.5064 -0.0751,-74.63306 -7.60007,-93.125 -4.32275,-10.62284 -7.16655,-15.5028 -11.97723,-20.55289 -4.86626,-5.10844 -5.78426,-5.55288 -11.46951,-5.55288 -5.15412,0 -7.22222,0.76516 -12.45972,4.60983 -3.45392,2.5354 -7.61414,6.44045 -9.24494,8.67788 -4.51966,6.20089 -10.38469,18.95012 -11.64706,25.31806 -0.40887,2.0625 -1.13903,5.71875 -1.62259,8.125 -1.83786,9.14547 -0.45788,89.57004 1.64827,96.06 0.35834,1.10419 2.93722,-0.61929 7.48167,-5 6.44087,-6.20884 11.92146,-9.27147 13.59553,-7.59741 1.47307,1.47306 0.59278,4.57236 -2.42092,8.52352 -3.08927,5.56336 -7.18978,10.0784 -11.65345,13.18428 -1.63588,1.12497 -3.62058,3.31976 -4.41044,4.87731 -3.48581,6.87378 -8.09336,6.3577 -12.52972,-1.40341 -5.61012,-9.81451 -6.36908,-114.50467 -0.92809,-128.01929 0.55357,-1.375 2.00977,-5.59375 3.236,-9.375 4.50996,-12.67007 13.11019,-24.09157 24.62814,-30.63385 9.05031,-4.94096 16.76387,-4.94147 25.812,-0.002 7.7233,4.21649 11.92116,9.12154 18.81717,21.9872 8.65765,16.1523 11.99691,28.82766 14.46271,54.89835 2.57938,27.2717 0.29035,74.27784 -5.56966,114.375 -0.70332,4.8125 -1.56297,12.6875 -1.91032,17.5 -0.95028,13.16562 -1.29289,15.98824 -2.31382,19.0625 -1.32423,3.98764 2.66883,3.80548 4.18832,-0.19107 4.30843,-7.92803 7.2461,-15.97638 9.98175,-24.21578 1.42066,-4.3144 3.08358,-8.8144 3.6954,-10 1.78922,-3.4673 4.77101,-11.50461 7.75586,-20.90565 1.52797,-4.8125 3.18231,-9.3125 3.6763,-10 0.49399,-0.6875 1.27625,-3.0198 1.73836,-5.18288 1.07585,-5.03598 4.73791,-8.41547 7.99793,-7.38077 2.56872,0.81528 7.27236,6.50449 9.87043,11.93865 1.97535,4.13163 5.4379,18.09939 5.99469,24.18224 0.24378,2.66323 0.72349,5.12249 1.06604,5.46503 0.34254,0.34253 3.89016,-1.34198 7.8836,-3.74339 18.53316,-11.14466 23.32256,-12.06713 29.20626,-5.6253 6.16451,7.16859 9.49899,31.06486 6.24523,36.51727 -1.62227,1.9547 -3.70583,22.60937 -2.48073,24.59164 2.11629,-3.61136 4.82942,-13.89135 5.57594,-18.60412 0.88255,-6.47485 3.50866,-17.75868 6.17516,-26.53337 0.94015,-3.09375 2.6488,-9 3.79699,-13.125 1.1482,-4.125 2.88172,-8.99303 3.85229,-10.81786 2.83221,-9.21935 6.59395,-14.526 11.93457,-22.03674 0.99929,-1.42667 3.27099,-2.95892 5.04821,-3.40497 2.65005,-0.66513 4.15782,0.0971 8.3816,4.23727 2.76699,4.02613 7.32319,8.49049 8.27528,12.6473 1.03441,4.70964 2.35767,4.70964 7.06731,0 5.89441,-5.89441 14.48728,-4.595 23.8239,3.60267 8.11913,6.02121 7.10548,-9.87273 14.70934,-17.91533 5.88837,-5.99124 11.26947,-6.42726 18.6929,-1.51467 5.61055,3.71288 16.96259,14.98838 19.16961,19.04036 4.22015,7.74797 10.91194,21.41971 10.91194,22.29375 0,0.54472 0.77789,2.76291 1.72865,4.92931 0.95075,2.1664 2.21637,5.75486 2.8125,7.97435 0.80879,3.0113 1.52396,3.75873 2.81805,2.94511 1.91666,-1.20503 2.85846,-8.32045 5.28457,-39.92537 1.48264,-19.31425 1.72659,-20.51643 4.41163,-21.73981 3.2142,-1.46449 8.71754,1.29585 10.1081,5.06997 0.42854,1.16306 1.13579,2.39591 1.57168,2.73966 2.73953,2.16044 14.71918,25.41252 21.25233,41.25 0.709,1.71875 2.66497,5.375 4.34658,8.125 1.88993,2.80797 6.43902,15.54171 8.16591,16.875 0.6875,0 1.25,-0.96615 1.25,-2.14701 0,-2.96929 -3.75124,-19.78405 -6.28494,-24.72799 -2.26507,-7.63259 -4.68241,-19.76711 -7.39284,-27.45506 -1.74004,-6.59913 -4.60304,-14.04403 -5.68648,-20.66964 -0.4933,-3.09375 -1.70625,-8.71875 -2.69545,-12.5 -2.61008,-9.97715 -2.4629,-40.0985 0.23554,-48.20725 2.83877,-8.53042 4.30748,-10.52907 11.99352,-16.32096 14.26594,-10.75023 36.48129,-16.74148 61.902,-16.69434 16.4615,0.0305 22.32748,1.73718 28.37026,8.25406 3.89312,4.19854 4.0513,5.25394 1.12089,7.47843 -2.98616,2.26683 -6.6775,2.14543 -10.2204,-0.33613 -11.92222,-4.90907 -25.74429,-0.62114 -38.21779,1.41672 -13.70112,3.34503 -31.68024,8.91513 -40.59087,20.61252 -3.91554,5.49886 -5.22762,20.73636 -3.05469,35.47479 2.01895,13.69406 4.71527,26.6657 7.31619,35.19716 3.91901,12.85508 5.68376,18.90585 7.10911,24.375 0.80629,3.09375 2.22646,7.39751 3.15596,9.56391 3.72204,10.21425 4.22592,20.5354 7.20681,30.54285 2.48312,8.1808 2.98197,22.80862 0.86482,25.35961 -3.70179,4.4604 -10.81835,1.04378 -17.09647,-8.20793 -3.1733,-4.07223 -6.06601,-8.94895 -8.03517,-12.86125 -6.34722,-11.44833 -13.16627,-23.90106 -17.95524,-33.93443 -2.78447,-4.16445 -6.20203,-16.5883 -9.38026,-18.81994 -2.20189,-1.37509 -2.38371,-0.76652 -3.17816,10.63682 -0.8813,12.6499 -3.39639,27.66467 -6.44155,38.45522 -0.98714,3.49793 -1.79479,7.478 -1.79479,8.84461 0,3.46062 -5.39968,8.21809 -8.75189,7.711 -2.91061,-0.44028 -5.5572,-5.89948 -7.47332,-15.41547 -1.04435,-5.18655 -2.8747,-10.80852 -5.81304,-17.85491 -4.20186,-14.15076 -10.90984,-27.94949 -21.22465,-38.69956 -7.53064,-7.65193 -11.5775,-8.35077 -15.76055,-2.72166 -3.33801,4.49195 -5.75072,20.47411 -3.60864,23.90414 5.27733,8.45034 8.65823,35.03018 6.2482,49.12199 -0.82303,4.8125 -1.97337,9.28438 -2.55627,9.9375 -0.58292,0.65313 -1.05984,2.66445 -1.05984,4.46961 0,4.63584 -5.0155,9.07535 -9.09584,8.05127 -2.84455,-0.71394 -3.43492,-1.97844 -5.72037,-12.25224 -4.94855,-22.2453 -5.73598,-30.81742 -4.15818,-45.26747 1.39049,-12.73458 1.34096,-13.46397 -1.12734,-16.60191 -3.11689,-3.9625 -8.55195,-7.69225 -11.2257,-7.70352 -1.07383,-0.005 -3.26612,1.76863 -4.87176,3.94037 -2.80884,3.79915 -2.89254,4.56805 -2.21137,20.3125 0.38937,9.00014 0.20711,20.58264 -0.40504,25.73889 -0.61214,5.15625 -1.67004,14.71875 -2.35088,21.25 -1.31378,12.60319 -3.53789,24.20051 -5.33383,27.8125 -0.5982,1.20312 -2.43465,2.1875 -4.08098,2.1875 -2.28807,0 -3.64053,-1.29593 -5.74033,-5.50034 -2.6683,-5.34277 -2.7316,-6.45296 -2.2095,-38.7532 0.38021,-23.52153 0.97555,-33.69089 2.03431,-34.74965 3.65505,-3.65505 0.50731,-24.2482 -4.87911,-31.92023 l -1.96474,-2.79843 -2.40853,2.79843 c -7.40904,11.35917 -12.44373,25.99118 -15.43121,38.42342 -0.74858,3.09375 -1.85236,8.4375 -2.45286,11.875 -0.6005,3.4375 -1.67057,7.9375 -2.37792,10 -3.04294,23.13973 -13.76241,46.27574 -16.80977,66.875 -0.33946,2.40625 -1.22991,7.46875 -1.97879,11.25 -0.74886,3.78125 -1.68741,8.97984 -2.08566,11.55242 -0.56213,3.63109 -1.41295,4.85032 -3.80346,5.4503 -4.96708,1.24667 -8.6161,-2.10178 -10.31604,-9.4663 -3.08411,-13.36113 -0.48223,-60.33856 4.25046,-76.74246 0.96494,-3.34457 1.75444,-7.67651 1.75444,-9.62651 0,-1.95001 0.84375,-6.78485 1.875,-10.74409 2.16975,-8.33021 2.45209,-19.50942 0.58102,-23.00554 -6.78885,-8.11249 -28.4691,13.99192 -30.02125,19.07441 -1.30239,9.86475 0.47578,20.07843 0.67272,28.17243 0.26848,11.52819 0.86116,26.30409 1.31705,32.83534 0.45588,6.53125 1.0135,14.6875 1.23915,18.125 0.22565,3.4375 1.09182,13.69039 1.92483,22.7842 1.63782,17.87978 1.10733,20.38194 -4.30407,20.30105 -4.15515,-0.0621 -6.7459,-2.77601 -7.74768,-8.11591 -1.64539,-5.05755 -13.84077,-31.14054 -13.29178,-32.08933 2.39706,-2.39706 7.30997,2.41253 11.74195,11.49499 0.50321,1.03125 0.8572,-4.03125 0.78663,-11.25 -1.07319,-20.28131 -2.58477,-41.94296 -3.63616,-56.875 -1.54969,-22.04003 -0.90161,-23.47241 -9.78126,-17.95251 -14.34851,8.91952 -22.9614,21.47472 -32.03799,46.70251 -10.10118,28.63019 -13.93223,60.61319 -16.86462,89.375 -0.78724,7.90625 -1.66078,16.34375 -1.94118,18.75 -0.28041,2.40625 -0.79866,8.875 -1.15166,14.375 -1.36788,21.31244 -3.36796,43.99305 -4.34546,49.27659 -0.56237,3.03962 -0.75973,6.2113 -0.43859,7.04817 0.32114,0.83686 0.005,4.81865 -0.70193,8.84841 -0.7072,4.02975 -1.64755,14.35808 -2.08967,22.95183 -0.44212,8.59375 -1.52134,17.73437 -2.39825,20.3125 -1.46588,4.30969 -1.40671,4.6875 0.73411,4.6875 1.28068,0 4.44925,-0.79574 7.04129,-1.76831 7.05794,-2.64825 26.7104,-8.79129 42.2128,-13.19504 7.5625,-2.14826 19.375,-5.63037 26.25,-7.73801 18.23475,-5.59017 40.59284,-12.24331 45.625,-13.57675 2.40625,-0.63763 9.95914,-2.89069 16.78419,-5.00683 6.82506,-2.11614 15.54381,-4.59494 19.375,-5.50846 3.8312,-0.91351 15.96581,-4.24566 26.96581,-7.40476 20.74956,-5.95909 54.47045,-15.44428 67.5,-18.98674 32.84126,-8.92885 50.53485,-13.61481 61.25,-16.2214 6.875,-1.67244 15.59375,-3.88584 19.375,-4.9187 3.78125,-1.03285 14.1875,-3.60505 23.125,-5.71601 8.9375,-2.11097 21.875,-5.20133 28.75,-6.86748 6.875,-1.66614 22.34375,-5.33575 34.375,-8.15467 12.03125,-2.81894 25.25,-6.27219 29.375,-7.67392 8.58954,-2.91881 17.8602,-3.06343 20.60224,-0.3214 1.6653,1.6653 1.66446,2.24724 -0.008,5.22597 -2.40633,4.28717 -9.28573,6.86511 -32.46979,12.16752 -9.96875,2.27995 -23.46875,5.65295 -30,7.49555 -39.9619,10.33955 -80.70379,19.2436 -119.375,29.43428 -5.5,1.44442 -15.90625,4.33592 -23.125,6.42557 -37.04882,10.40296 -74.9809,20.25495 -110.14024,30.93176 -32.97087,7.94367 -64.30698,18.86181 -95.48476,28.21804 -25.62635,7.67466 -43.57826,13.36721 -47.85491,15.1748 -2.2577,0.95424 -5.12364,1.73499 -6.36876,1.73499 -4.69317,0 -6.10984,3.77026 -6.9104,18.39102 -1.00595,9.58027 -4.16032,47.4764 -9.62073,49.77518 -6.58006,2.08842 -9.16777,-2.77824 -7.30927,-13.74645 0.58663,-3.46211 1.68081,-9.82054 2.43151,-14.12984 2.14757,-12.3279 3.07261,-32.29315 1.5401,-33.2403 -0.72751,-0.44962 -2.91683,-0.17136 -4.86514,0.61835 -56.13966,20.04714 -107.0793,39.0282 -158.5424,56.64729 -15.566287,4.82818 -28.903591,8.21437 -44.76588,5.63019 z m 22.89088,-16.79469 c 15.98357,-2.92706 36.58101,-9.17739 61.875,-18.77609 19.11804,-7.25501 44.34434,-16.06289 82.98079,-28.97311 29.41322,-9.82831 40.91366,-14.21001 42.06409,-16.0265 0.96966,-1.5311 2.13045,-11.46236 2.99511,-25.625 0.77651,-12.71875 2.26145,-31 3.29987,-40.625 1.03842,-9.625 2.43278,-23.6875 3.09858,-31.25 0.6658,-7.5625 2.03714,-22.1875 3.04744,-32.5 2.61842,-26.72721 2.83282,-34.68313 0.95162,-35.31145 -0.85937,-0.28704 -1.5625,0.24339 -1.5625,1.17871 -11.8398,17.09778 -30.38559,30.55608 -43.8487,43.70923 -8.64804,8.48294 -19.52092,18.79851 -24.16199,22.92351 -4.64105,4.125 -10.74581,9.90798 -13.56612,12.85105 -46.10684,43.02964 -97.474435,88.50571 -134.04819,132.2134 -2.0625,2.60288 -4.73438,5.60633 -5.9375,6.67433 -2.523626,3.48645 -6.990556,8.54105 -3.29745,10.03347 4.26279,1.70555 15.22334,1.4971 26.10995,-0.49655 z m 262.64334,-366.47436 6.10666,-3.32367 0,-7.84496 c 0,-8.25285 -1.56634,-14.25771 -3.71906,-14.25771 -0.59615,0.26963 -10.85075,28.39271 -9.36192,28.75 0.47722,0 3.61565,-1.49565 6.97432,-3.32366 z"
       style="fill:#000000" />
  </g>
</svg>
